# xmcd
#
# Track frame offsets:
#	150
#	9835
#	23364
#	36775
#
# Disc length: 650 seconds
#
# Revision: 1
# Processed by: cddbd v1.5.2PL0 Copyright (c) Steve Scherf et al.
# Submitted via: audiograbber 1.83.01
#
DISCID=19028804
DTITLE=Venomous Concept - Poisened Apple
DYEAR=2008
DGENRE=Metal
TTITLE0=Drop Dead
TTITLE1=Water Cooler
TTITLE2=Half Full?
TTITLE3=Hero
EXTD=
EXTT0=
EXTT1=
EXTT2=
EXTT3=
PLAYORDER=
